<?xml version="1.0" standalone="no"?>
<!DOCTYPE svg PUBLIC "-//W3C//DTD SVG 20010904//EN"
 "http://www.w3.org/TR/2001/REC-SVG-20010904/DTD/svg10.dtd">
<svg version="1.0" xmlns="http://www.w3.org/2000/svg"
 width="301.000000pt" height="301.000000pt" viewBox="0 0 301.000000 301.000000"
 preserveAspectRatio="xMidYMid meet">
<metadata>
Created by potrace 1.11, written by Peter Selinger 2001-2013
</metadata>
<g transform="translate(0.000000,301.000000) scale(0.100000,-0.100000)"
fill="#000000" stroke="none">
<path d="M1673 2453 c-14 -3 -23 -12 -23 -23 0 -41 8 -46 69 -42 106 8 171
-49 171 -148 0 -43 0 -43 -32 -37 -18 3 -90 22 -160 40 -145 40 -145 40 -157
-40 -9 -64 6 -110 50 -154 39 -39 116 -70 159 -65 14 2 34 4 46 5 32 2 111 59
135 98 27 43 47 125 43 174 -5 53 -19 83 -60 128 -52 58 -145 83 -241 64z m69
-284 c62 -16 115 -32 117 -35 8 -8 -13 -36 -41 -57 -54 -40 -161 -18 -187 39
-11 25 -16 84 -6 84 2 0 55 -14 117 -31z"/>
<path d="M313 2361 c-12 -46 -7 -125 11 -159 23 -45 58 -64 178 -97 57 -15
158 -43 225 -61 67 -19 128 -34 136 -34 16 0 62 150 49 161 -4 3 -19 9 -34 13
-21 5 -28 3 -29 -9 -4 -44 -20 -77 -35 -71 -8 3 -98 28 -201 56 -226 61 -236
68 -231 155 l3 59 -33 7 c-29 6 -33 4 -39 -20z"/>
<path d="M2067 2226 c-56 -203 -59 -258 -18 -305 32 -36 106 -60 155 -49 22 5
46 14 53 20 10 8 14 3 19 -20 4 -22 13 -32 31 -37 14 -3 27 -5 29 -3 2 3 69
247 79 290 2 9 11 44 21 78 18 66 15 74 -31 83 l-30 6 -44 -165 c-49 -181 -50
-183 -126 -189 -51 -4 -89 19 -99 61 -4 16 8 85 34 186 23 88 40 162 38 163
-2 2 -19 6 -39 10 l-35 7 -37 -136z"/>
<path d="M2550 2198 c-35 -135 -103 -384 -106 -390 -6 -10 67 -31 76 -22 5 5
26 77 47 159 l38 150 43 22 c44 22 65 22 114 2 26 -11 41 -35 42 -69 1 -8 -16
-80 -36 -160 -21 -80 -38 -150 -38 -157 0 -14 61 -34 71 -24 10 9 81 281 86
328 12 110 -106 191 -216 147 -44 -18 -44 -18 -37 10 6 25 6 25 -56 42 -13 4
-20 -5 -28 -38z"/>
<path d="M982 2064 c-26 -18 -29 -56 -6 -78 21 -21 40 -20 64 4 30 30 25 57
-16 78 -16 9 -26 8 -42 -4z"/>
<path d="M1264 1970 c-70 -35 -111 -115 -100 -196 4 -33 2 -44 -8 -44 -7 0
-18 -18 -23 -39 l-10 -39 61 -16 c76 -20 366 -98 466 -125 41 -11 80 -21 87
-21 12 0 34 58 27 71 -2 3 -32 14 -66 23 -130 35 -131 36 -114 55 23 26 46 87
46 124 0 47 -45 130 -87 163 -83 63 -202 82 -279 44z m182 -85 c45 -17 103
-74 105 -103 6 -64 -8 -103 -45 -127 -20 -13 -31 -13 -112 10 -49 14 -106 30
-126 35 -31 9 -38 16 -44 44 -7 42 1 71 33 113 37 51 104 61 189 28z"/>
<path d="M494 1960 c-50 -11 -112 -61 -136 -110 -18 -35 -23 -62 -23 -122 0
-42 3 -79 7 -83 4 -4 21 -4 38 0 29 6 31 9 24 38 -25 109 40 197 145 197 48 0
50 -7 26 -88 -9 -28 -26 -93 -39 -144 l-24 -93 29 -12 c73 -32 168 -9 214 52
73 95 65 221 -19 299 -59 54 -164 83 -242 66z m199 -130 c63 -50 51 -177 -20
-209 -24 -11 -83 -15 -83 -6 0 3 9 37 19 77 11 40 25 92 31 116 12 48 17 50
53 22z"/>
<path d="M1075 1464 c-3 -20 -4 -38 -2 -40 6 -7 406 -114 423 -114 12 0 23 29
39 108 5 23 3 32 -7 32 -7 0 -22 3 -34 6 -17 5 -22 0 -27 -25 l-6 -30 -88 24
c-207 55 -283 75 -287 75 -2 0 -7 -16 -11 -36z"/>
<path d="M2120 1260 c-122 -125 -153 -174 -146 -228 10 -68 81 -131 150 -134
33 -1 34 -2 24 -30 -11 -30 2 -58 26 -58 6 0 82 71 169 158 l158 158 -31 29
-30 29 -122 -122 c-70 -70 -129 -122 -140 -122 -50 0 -114 46 -118 85 -5 47 6
63 120 179 l120 122 -28 27 c-16 15 -30 27 -33 26 -2 0 -56 -54 -119 -119z"/>
<path d="M398 1242 c-132 -134 -152 -166 -145 -228 9 -79 81 -138 176 -143 8
-1 6 -7 -8 -18 l-22 -18 26 -27 c14 -16 29 -28 33 -28 4 0 79 72 166 159 l159
159 -28 26 c-15 14 -30 26 -33 26 -3 0 -55 -49 -114 -109 -59 -60 -118 -113
-129 -116 -36 -12 -89 5 -120 38 -52 54 -40 81 96 217 63 63 115 119 115 123
0 9 -13 23 -40 44 -13 10 -34 -7 -132 -105z"/>
<path d="M1606 1347 c-38 -28 -18 -87 30 -87 27 0 55 35 47 59 -7 19 -32 41
-48 41 -6 0 -19 -6 -29 -13z"/>
<path d="M1034 1220 c-18 -12 -37 -33 -43 -48 -12 -29 -31 -125 -26 -130 2 -2
18 -5 36 -7 34 -4 34 -4 36 37 2 48 26 77 68 82 27 3 257 -53 270 -66 3 -2 -2
-27 -10 -54 -19 -63 -20 -60 15 -73 l30 -10 17 59 c9 33 22 60 28 60 7 0 33
-6 58 -14 47 -14 55 -12 51 12 -1 6 -2 23 -3 36 -1 24 -6 27 -65 41 -23 5 -27
10 -23 31 5 27 4 28 -35 38 -23 5 -28 3 -28 -13 0 -11 -4 -22 -9 -25 -7 -5
-131 26 -217 54 -50 16 -116 12 -150 -10z"/>
<path d="M1745 1112 c-30 -25 -55 -51 -55 -57 0 -7 11 -21 24 -34 l23 -22 52
60 c50 58 57 83 26 95 -8 3 -39 -16 -70 -42z"/>
<path d="M696 859 l-159 -159 28 -30 29 -30 122 121 c120 120 123 122 159 116
72 -12 114 -61 100 -116 -4 -14 -59 -79 -123 -143 l-116 -118 29 -30 29 -30
108 108 c60 59 120 125 133 148 33 54 33 108 0 156 -27 40 -99 80 -133 73 -25
-4 -25 -5 -13 28 10 25 6 34 -19 54 -12 9 -43 -17 -174 -148z"/>
</g>
</svg>
